<?xml version="1.0" standalone="no"?>
<!DOCTYPE svg PUBLIC "-//W3C//DTD SVG 20010904//EN"
 "http://www.w3.org/TR/2001/REC-SVG-20010904/DTD/svg10.dtd">
<svg version="1.0" xmlns="http://www.w3.org/2000/svg"
 width="632.000000pt" height="578.000000pt" viewBox="0 0 632.000000 578.000000"
 preserveAspectRatio="xMidYMid meet">

<g transform="translate(0.000000,578.000000) scale(0.100000,-0.100000)"
fill="#000000" stroke="none">
<path d="M2310 5189 c-492 -169 -898 -309 -901 -311 -3 -2 4 -149 17 -328 13
-179 23 -341 24 -360 l0 -35 72 4 c40 2 173 -5 294 -14 137 -11 286 -16 390
-13 l169 3 212 102 c116 57 245 114 286 128 77 26 190 34 202 15 11 -18 -18
-56 -140 -175 -95 -93 -129 -134 -153 -184 -65 -132 -24 -248 99 -281 59 -16
168 3 255 45 71 34 192 134 313 258 l54 56 -37 -9 c-65 -14 -97 -31 -222 -112
-134 -87 -209 -118 -282 -118 -56 0 -102 28 -102 61 0 50 62 134 170 227 252
219 322 262 446 270 103 6 147 -8 327 -104 189 -102 286 -140 404 -155 106
-13 242 0 300 29 63 32 136 42 312 42 l169 0 7 68 c7 70 34 575 31 579 -2 2
-1767 604 -1806 616 -8 3 -418 -134 -910 -304z"/>
<path d="M3560 4096 c0 -2 28 -23 63 -47 90 -64 294 -227 400 -322 51 -45 118
-104 150 -131 65 -54 87 -90 87 -138 0 -42 -20 -72 -60 -88 -47 -20 -93 -1
-216 90 -119 88 -168 109 -203 91 -25 -14 -27 -38 -6 -68 8 -12 64 -55 123
-96 121 -84 182 -145 182 -182 0 -36 -56 -95 -89 -95 -46 0 -140 54 -260 150
-63 50 -128 98 -144 106 -34 18 -76 15 -90 -7 -21 -34 2 -67 106 -147 99 -77
167 -143 167 -163 0 -5 -11 -27 -25 -49 -27 -43 -57 -56 -96 -42 -22 9 -158
108 -268 197 -50 40 -91 45 -121 15 -42 -42 -27 -66 104 -175 58 -48 107 -93
110 -102 18 -46 -15 -97 -75 -113 -35 -10 -50 -7 -142 26 -56 20 -107 41 -114
48 -8 8 -7 28 7 81 45 167 9 238 -132 266 -52 10 -58 14 -58 36 0 73 -94 156
-194 169 -37 5 -46 11 -59 39 -20 41 -69 79 -124 96 -48 13 -112 1 -145 -28
-16 -14 -21 -12 -63 24 -77 69 -160 79 -236 28 -43 -28 -116 -134 -152 -220
l-25 -60 -116 -17 c-64 -10 -122 -21 -130 -25 -9 -6 9 -48 73 -169 181 -340
295 -499 520 -725 227 -227 460 -403 789 -598 l122 -73 118 63 c486 257 866
599 1161 1044 87 132 210 366 250 477 l21 57 -331 231 c-408 286 -649 445
-762 504 -76 40 -117 55 -117 42z m-1261 -614 c43 -32 47 -46 25 -94 -29 -64
-110 -185 -133 -197 -37 -20 -88 -13 -110 15 -33 42 -27 87 24 175 64 108 90
132 135 125 19 -3 46 -14 59 -24z m307 -47 c54 -32 60 -53 34 -112 -32 -72
-108 -190 -137 -213 -28 -22 -82 -26 -114 -10 -28 16 -52 68 -45 102 8 41 94
192 129 228 37 38 75 39 133 5z m235 -125 c56 -29 67 -58 43 -112 -28 -63
-109 -183 -135 -202 -36 -25 -91 -21 -120 10 -41 43 -33 93 30 196 78 130 106
146 182 108z m197 -194 c15 -8 36 -24 46 -35 19 -21 19 -22 -3 -69 -91 -187
-173 -246 -236 -170 -35 41 -30 74 26 170 69 117 102 138 167 104z"/>
<path d="M1947 1564 c-3 -3 -94 -6 -202 -6 l-197 0 8 -71 c4 -40 7 -181 6
-314 l-1 -243 89 0 89 0 -2 118 -2 117 123 3 123 3 -3 72 -3 72 -117 3 c-108
2 -117 4 -123 23 -4 11 -4 32 0 46 l6 26 135 -6 135 -5 -7 76 c-4 42 -12 80
-18 84 -13 9 -31 10 -39 2z"/>
<path d="M4440 1563 l-55 -4 3 -312 2 -312 72 -3 c58 -2 75 0 84 13 11 15 15
15 40 -2 20 -12 47 -18 89 -18 73 0 117 23 160 84 25 36 30 54 33 117 3 54 -1
88 -13 119 -41 108 -182 158 -267 95 -15 -11 -30 -20 -34 -20 -3 0 -5 55 -3
123 l4 122 -30 1 c-16 0 -55 -1 -85 -3z m245 -358 c53 -52 16 -145 -56 -145
-46 0 -79 34 -79 80 0 81 81 120 135 65z"/>
<path d="M3614 1537 c4 -12 9 -112 13 -222 7 -235 -1 -286 -52 -341 l-33 -35
61 -60 62 -60 42 46 c79 86 87 122 91 427 l4 266 -97 1 c-95 0 -97 -1 -91 -22z"/>
<path d="M2551 1375 c-180 -56 -201 -338 -32 -424 80 -41 213 -34 269 14 l26
23 -19 37 c-25 46 -34 50 -71 30 -34 -18 -103 -20 -138 -4 -24 11 -41 37 -31
47 2 3 53 9 112 14 60 4 118 10 129 13 29 6 35 37 22 99 -18 87 -118 168 -203
165 -11 0 -40 -6 -64 -14z m101 -117 c34 -28 29 -45 -17 -57 -91 -23 -117 -7
-79 47 17 25 70 30 96 10z"/>
<path d="M3021 1375 c-180 -56 -201 -338 -32 -424 80 -41 213 -34 269 14 l26
23 -19 37 c-25 46 -34 50 -71 30 -34 -18 -103 -20 -138 -4 -24 11 -41 37 -31
47 2 3 53 9 112 14 60 4 118 10 129 13 29 6 35 37 22 99 -18 87 -118 168 -203
165 -11 0 -40 -6 -64 -14z m101 -117 c34 -28 29 -45 -17 -57 -91 -23 -117 -7
-79 47 17 25 70 30 96 10z"/>
<path d="M2127 1357 c-67 -10 -69 -11 -62 -36 4 -14 9 -108 12 -208 l5 -183
74 0 74 0 0 118 c0 78 4 122 12 130 7 7 36 12 65 12 l53 0 2 70 c0 39 1 76 2
83 2 22 -38 18 -89 -7 -51 -26 -65 -23 -65 17 0 9 -3 16 -7 15 -5 0 -39 -6
-76 -11z"/>
<path d="M4021 1356 c-88 -29 -141 -108 -141 -211 0 -75 25 -131 75 -173 96
-79 267 -60 332 37 60 88 53 217 -16 295 -46 52 -169 78 -250 52z m136 -148
c52 -49 17 -148 -53 -148 -38 0 -84 47 -84 85 0 13 12 37 26 54 32 38 76 42
111 9z"/>
</g>
</svg>
