<svg width="65" height="40" viewBox="0 0 65 40" fill="none" xmlns="http://www.w3.org/2000/svg">
<path fill-rule="evenodd" clip-rule="evenodd" d="M2.63973 1.41113L15.2025 26.6082L32.1035 21.7914L30.769 25.7424L10.9071 40.0005L1.10938 5.93553L2.63973 1.41113Z" fill="#D2D2D2"/>
<path fill-rule="evenodd" clip-rule="evenodd" d="M10.8856 39.9938L1.08802 5.92884L2.61824 1.40449L15.1812 26.6015L10.8856 39.9938Z" fill="#BEBEBE"/>
<path d="M27.4788 24.5439H29.2266V38.0422H27.4788V24.5439Z" fill="#5A5A5A"/>
<path d="M36.3942 36.8185V33.47C36.2388 33.3854 36.0329 33.3692 35.6398 33.3692C34.9708 33.3692 34.9202 33.5734 34.9202 34.2743V35.8788C34.9202 36.6647 34.9708 36.8538 35.6225 36.8538C36.1196 36.8538 36.3255 36.8368 36.3942 36.8185ZM33.3281 36.3074V33.8288C33.3281 32.5992 33.7558 32.0513 34.8862 32.0513H35.2121C35.9824 32.0513 36.2388 32.1209 36.3942 32.2056V30.0859C36.3942 29.3343 36.2736 29.1992 35.6225 29.1992C35.0062 29.1992 34.9202 29.4031 34.9202 30.0859V31.0951H33.3281V29.8814C33.3281 27.9682 33.7385 27.7129 35.6225 27.7129C37.6608 27.7129 38.0907 27.9682 38.0907 29.8814V38.1177C37.6789 38.2192 36.84 38.2891 35.4852 38.2891C33.7385 38.2891 33.3281 38.0326 33.3281 36.3074Z" fill="#5A5A5A"/>
<path d="M43.9587 38.1628H42.2109V27.9276H43.8381V28.6123C44.0968 28.1156 44.5923 27.8438 45.45 27.8438C46.838 27.8438 47.2673 28.3209 47.2673 29.9265V38.1628H45.5186V30.1149C45.5186 29.5854 45.3467 29.4148 44.763 29.4148C44.3186 29.4148 44.0968 29.6186 43.9587 29.9453V38.1628Z" fill="#5A5A5A"/>
<path d="M54.5594 31.6761V30.0697C54.5594 29.4719 54.4373 29.3527 53.839 29.3527C53.1706 29.3527 53.0855 29.4889 53.0855 30.0697V35.9477C53.0855 36.5459 53.2046 36.681 53.839 36.681C54.4373 36.681 54.5594 36.4958 54.5594 35.9477V33.2994H56.1526V36.1184C56.1526 38.0488 55.6729 38.2891 53.839 38.2891C51.8 38.2891 51.3867 37.9977 51.3867 36.1184V29.8814C51.3867 27.9852 51.834 27.7129 53.839 27.7129C55.7754 27.7129 56.1526 28.054 56.1526 29.8814V31.6761H54.5594Z" fill="#5A5A5A"/>
<path d="M61.9483 32.2056H63.4229V30.0197C63.4229 29.3696 63.3015 29.2493 62.6852 29.2493C62.0508 29.2493 61.9483 29.3696 61.9483 30.0197V32.2056ZM61.9483 33.6073V36.0157C61.9483 36.6648 62.0508 36.8023 62.6852 36.8023C63.3015 36.8023 63.4229 36.6648 63.4229 36.0157V34.6323H65.0003V36.1184C65.0003 38.0327 64.587 38.2891 62.6852 38.2891C60.6636 38.2891 60.2344 38.0327 60.2344 36.1184V29.8814C60.2344 27.9682 60.6636 27.7129 62.6852 27.7129C64.587 27.7129 65.0003 27.9682 65.0003 29.8814V33.6073H61.9483Z" fill="#5A5A5A"/>
</svg>
