<svg width="24" height="24" viewBox="0 0 24 24" fill="none" xmlns="http://www.w3.org/2000/svg">
<path d="M19.7239 4.24608C19.5101 4.10956 19.2655 4.02698 19.0118 4.00557C18.758 3.98417 18.5029 4.02461 18.2687 4.12333L10.5945 7.10603C10.4128 7.179 10.2185 7.21652 10.0224 7.2165H5.10945C4.69711 7.2165 4.30166 7.37815 4.0101 7.66589C3.71853 7.95363 3.55473 8.34389 3.55473 8.75081V8.87356H2V12.5559H3.55473V12.7155C3.56447 13.116 3.73256 13.4968 4.02308 13.7767C4.3136 14.0565 4.7035 14.2131 5.10945 14.213L6.97512 18.1162C7.10146 18.3791 7.30035 18.6014 7.54896 18.7578C7.79757 18.9141 8.08582 18.9981 8.3806 19H9.16418C9.57436 18.9968 9.96662 18.8337 10.2555 18.5463C10.5444 18.2589 10.7065 17.8705 10.7065 17.4657V14.3602L18.2687 17.3429C18.4547 17.416 18.653 17.4535 18.8532 17.4534C19.1638 17.4485 19.4663 17.3547 19.7239 17.1834C19.9285 17.0471 20.0972 16.8646 20.2162 16.6512C20.3351 16.4378 20.4009 16.1994 20.408 15.9559V5.51035C20.4068 5.26058 20.3439 5.01487 20.2247 4.79454C20.1055 4.57422 19.9336 4.38595 19.7239 4.24608V4.24608ZM9.15174 8.75081V12.7155H5.10945V8.75081H9.15174ZM9.15174 17.4657H8.36816L6.83831 14.213H9.15174V17.4657ZM11.1667 12.8996C11.019 12.8251 10.865 12.7635 10.7065 12.7155V8.66489C10.8635 8.63292 11.0174 8.58775 11.1667 8.52987L18.8532 5.51035V15.9191L11.1667 12.8996ZM20.4453 9.18042V12.249C20.8576 12.249 21.2531 12.0874 21.5446 11.7996C21.8362 11.5119 22 11.1217 22 10.7147C22 10.3078 21.8362 9.91755 21.5446 9.62981C21.2531 9.34207 20.8576 9.18042 20.4453 9.18042V9.18042Z" fill="white"/>
</svg>
