<svg width="21" height="20" viewBox="0 0 21 20" fill="none" xmlns="http://www.w3.org/2000/svg">
<path d="M18 9.58317C18 11.1489 17.5357 12.6795 16.6658 13.9814C15.7959 15.2833 14.5595 16.298 13.1129 16.8972C11.6663 17.4964 10.0745 17.6532 8.53883 17.3477C7.00315 17.0423 5.59253 16.2883 4.48537 15.1811C3.3782 14.0739 2.62421 12.6633 2.31875 11.1276C2.01328 9.59195 2.17006 8.00017 2.76925 6.55359C3.36844 5.10701 4.38314 3.8706 5.68503 3.0007C6.98692 2.13081 8.51753 1.6665 10.0833 1.6665C12.1829 1.6665 14.1966 2.50058 15.6812 3.98524C17.1659 5.4699 18 7.48354 18 9.58317V9.58317Z" stroke="#141414" strokeWidth="1.5" strokeLinecap="round" stroke-linejoin="round"/>
<path d="M18.8333 18.3332L17.1666 16.6665" stroke="#141414" strokeWidth="1.5" strokeLinecap="round" stroke-linejoin="round"/>
</svg>
