<svg width="60" height="60" viewBox="0 0 60 60" fill="none" xmlns="http://www.w3.org/2000/svg">
<path d="M35 12.5H50" stroke="#777E91" stroke-width="2" stroke-linecap="round" stroke-linejoin="round"/>
<path d="M35 20H42.5" stroke="#777E91" stroke-width="2" stroke-linecap="round" stroke-linejoin="round"/>
<path d="M52.5 28.75C52.5 33.4473 51.1071 38.0391 48.4974 41.9448C45.8877 45.8505 42.1785 48.8946 37.8387 50.6921C33.499 52.4897 28.7237 52.9601 24.1166 52.0437C19.5096 51.1273 15.2777 48.8653 11.9562 45.5438C8.63473 42.2223 6.37276 37.9904 5.45636 33.3834C4.53996 28.7763 5.01029 24.001 6.80787 19.6613C8.60545 15.3215 11.6495 11.6123 15.5552 9.0026C19.4609 6.39291 24.0527 5 28.75 5" stroke="#777E91" stroke-width="2" stroke-linecap="round" stroke-linejoin="round"/>
<path d="M55 55L50 50" stroke="#777E91" stroke-width="2" stroke-linecap="round" stroke-linejoin="round"/>
</svg>
